<?xml version="1.0" standalone="no"?>
<!DOCTYPE svg PUBLIC "-//W3C//DTD SVG 20010904//EN"
 "http://www.w3.org/TR/2001/REC-SVG-20010904/DTD/svg10.dtd">
<svg version="1.0" xmlns="http://www.w3.org/2000/svg"
 width="1024.000000pt" height="1024.000000pt" viewBox="0 0 1024.000000 1024.000000"
 preserveAspectRatio="xMidYMid meet">

<g transform="translate(0.000000,1024.000000) scale(0.100000,-0.100000)"
fill="#000000" stroke="none">
<path d="M1500 9293 c-91 -34 -72 -163 24 -166 73 -2 112 83 64 137 -24 26
-62 39 -88 29z"/>
<path d="M2160 8619 c-90 -37 -129 -153 -77 -229 51 -75 124 -98 199 -61 59
29 81 63 86 131 4 60 -17 104 -69 143 -31 23 -103 31 -139 16z"/>
<path d="M1652 8071 c-181 -63 -217 -301 -65 -417 114 -87 281 -51 353 76 34
60 35 165 3 226 -56 105 -180 155 -291 115z"/>
<path d="M2562 7979 c-45 -13 -75 -62 -68 -113 14 -114 174 -128 207 -18 25
85 -50 156 -139 131z"/>
<path d="M2173 7442 c-134 -48 -216 -166 -217 -313 0 -98 32 -167 110 -238
155 -142 408 -93 501 97 24 50 28 69 28 147 0 106 -22 163 -89 230 -85 85
-222 116 -333 77z"/>
<path d="M3083 7346 c-241 -78 -338 -364 -197 -573 42 -61 83 -94 162 -131 49
-23 70 -27 147 -27 80 1 97 4 156 33 78 38 140 100 177 180 24 50 27 69 27
162 0 95 -3 110 -28 160 -66 128 -180 201 -322 207 -49 2 -96 -2 -122 -11z"/>
<path d="M2455 6540 c-176 -43 -279 -217 -230 -386 38 -129 101 -206 263 -316
56 -39 120 -91 142 -117 22 -25 101 -166 179 -316 76 -148 326 -632 554 -1075
459 -892 692 -1344 802 -1555 40 -77 199 -387 355 -690 405 -788 518 -1003
550 -1050 47 -69 134 -141 198 -165 76 -29 203 -25 275 10 66 31 140 100 181
168 60 101 2145 4274 2602 5210 l123 252 -885 0 -885 0 -18 -42 c-10 -24 -274
-585 -586 -1248 -313 -663 -604 -1281 -648 -1375 -43 -93 -81 -172 -83 -174
-2 -2 -15 20 -28 50 -22 51 -316 670 -676 1424 -89 187 -243 511 -342 720
-263 556 -283 591 -380 639 -65 33 -152 35 -216 6 -27 -12 -84 -61 -150 -129
-118 -119 -173 -153 -280 -172 -44 -8 -79 -8 -123 0 -103 18 -159 51 -277 163
-115 110 -182 151 -273 168 -59 11 -100 11 -144 0z"/>
</g>
</svg>
